<svg width="37" height="14" viewBox="0 0 37 14" fill="none" xmlns="http://www.w3.org/2000/svg">
<g id="Logo" clip-path="url(#clip0_211_2077)">
<path id="Vector" d="M8.81739 0.00378418C7.40385 0.00378418 6.04824 0.565304 5.04873 1.56482L1.78674 4.8268C0.787227 5.82631 0.225708 7.18193 0.225708 8.59546C0.225708 11.539 2.6119 13.9252 5.55542 13.9252C6.96895 13.9252 8.32457 13.3636 9.32408 12.3641L11.5804 10.1078C11.5804 10.1077 11.5805 10.1078 11.5804 10.1078L18.1546 3.5336C18.632 3.05624 19.2794 2.78806 19.9545 2.78806C21.0847 2.78806 22.0429 3.52469 22.3751 4.54405L24.4499 2.46924C23.5034 0.986792 21.8438 0.00378418 19.9545 0.00378418C18.541 0.00378418 17.1853 0.565304 16.1858 1.56482L7.35532 10.3954C6.87795 10.8727 6.23051 11.1409 5.55542 11.1409C4.14961 11.1409 3.00999 10.0013 3.00999 8.59546C3.00999 7.92037 3.27816 7.27293 3.75552 6.79557L7.01749 3.5336C7.49485 3.05624 8.14229 2.78806 8.81739 2.78806C9.94766 2.78806 10.9058 3.52473 11.238 4.54411L13.3129 2.46929C12.3664 0.98682 10.7067 0.00378418 8.81739 0.00378418Z" fill="#394149"/>
<path id="Vector_2" d="M18.4924 10.3954C18.0151 10.8727 17.3676 11.1409 16.6925 11.1409C15.5624 11.1409 14.6043 10.4045 14.272 9.38527L12.1973 11.46C13.1438 12.9423 14.8034 13.9252 16.6925 13.9252C18.1061 13.9252 19.4617 13.3636 20.4612 12.3641L29.2917 3.5336C29.7691 3.05624 30.4165 2.78806 31.0916 2.78806C32.4974 2.78806 33.637 3.92769 33.637 5.3335C33.637 6.00859 33.3689 6.65603 32.8915 7.13339L29.6295 10.3954C29.1522 10.8727 28.5047 11.1409 27.8296 11.1409C26.6995 11.1409 25.7413 10.4043 25.409 9.38504L23.3343 11.4598C24.2808 12.9422 25.9404 13.9252 27.8296 13.9252C29.2432 13.9252 30.5988 13.3636 31.5983 12.3641L34.8603 9.10215C35.8598 8.10265 36.4213 6.74703 36.4213 5.3335C36.4213 2.38998 34.0351 0.00378418 31.0916 0.00378418C29.6781 0.00378418 28.3225 0.565304 27.3229 1.56482L18.4924 10.3954Z" fill="#394149"/>
</g>
<defs>
<clipPath id="clip0_211_2077">
<rect width="36.1956" height="13.9214" fill="white" transform="translate(0.225708 0.00378418)"/>
</clipPath>
</defs>
</svg>
