<svg width="33" height="21" viewBox="0 0 33 21" fill="none" xmlns="http://www.w3.org/2000/svg">
<g id="Logo" clip-path="url(#clip0_211_2057)">
<path id="Vector" d="M30.7849 2.7008C30.7849 2.72434 30.7849 2.75376 30.7788 2.77141C30.7481 3.0009 30.7481 3.23038 30.7665 3.46575C30.7788 3.52459 30.791 3.58343 30.8401 3.63051C30.9198 3.71877 31.0424 3.70112 31.0915 3.5952C31.116 3.54224 31.116 3.48928 31.1037 3.43633C31.0424 3.21273 31.0301 2.97736 31.024 2.74787C31.024 2.73611 31.024 2.71845 31.024 2.7008C31.0914 2.69492 31.1528 2.68903 31.2079 2.68903C31.2509 2.68315 31.2876 2.67726 31.3183 2.65961C31.4102 2.61254 31.4102 2.51251 31.3121 2.46543C31.2754 2.44778 31.2263 2.44189 31.1834 2.44189C31.0301 2.44778 30.8769 2.44778 30.7236 2.44778C30.6684 2.44778 30.6132 2.45367 30.558 2.45955C30.5274 2.46543 30.4906 2.46543 30.4661 2.48309C30.4232 2.50074 30.3987 2.53016 30.3987 2.57135C30.4048 2.61254 30.4232 2.63607 30.4661 2.65373C30.4906 2.67138 30.5213 2.67726 30.5519 2.67726C30.6255 2.68315 30.7052 2.69492 30.7849 2.7008ZM32.4709 2.97147C32.4709 2.97736 32.477 2.98324 32.477 2.98324C32.5015 3.14212 32.5261 3.29511 32.5444 3.44809C32.5506 3.50105 32.5567 3.54812 32.5935 3.58931C32.6732 3.68934 32.7958 3.67758 32.851 3.57166C32.8755 3.5187 32.8816 3.46575 32.8694 3.40691C32.8326 3.23038 32.8142 3.05385 32.7774 2.88321C32.7529 2.77729 32.7223 2.67726 32.6916 2.58312C32.6732 2.52428 32.6303 2.48308 32.5567 2.4772C32.4832 2.46543 32.428 2.50074 32.3973 2.5537C32.3605 2.60077 32.3299 2.64784 32.3053 2.7008C32.2624 2.79495 32.2256 2.8891 32.1766 2.97736C32.1704 3.0009 32.1643 3.01855 32.1521 3.0362C32.146 3.02443 32.1398 3.01855 32.1398 3.01855C32.0601 2.87144 31.9865 2.72434 31.9069 2.58312C31.8946 2.57135 31.8884 2.55958 31.8823 2.54781C31.8455 2.49486 31.8026 2.46543 31.7352 2.46543C31.6739 2.47132 31.6248 2.50662 31.5942 2.55958C31.5819 2.58312 31.5819 2.60077 31.5758 2.62431C31.5512 2.8126 31.5206 3.0009 31.4961 3.18919C31.4838 3.29511 31.4777 3.40102 31.4777 3.50694C31.4716 3.53047 31.4777 3.55989 31.4899 3.58343C31.5022 3.6305 31.539 3.65993 31.588 3.66581C31.6493 3.6717 31.6922 3.65404 31.7107 3.60697C31.729 3.57166 31.7352 3.54224 31.7413 3.51282C31.7659 3.40691 31.7842 3.30687 31.8026 3.20684C31.8149 3.148 31.821 3.10093 31.8394 3.0362C31.8517 3.05974 31.8639 3.07739 31.8762 3.09504C31.9313 3.16565 31.9865 3.23626 32.054 3.29511C32.1214 3.34218 32.1766 3.3363 32.2318 3.28333C32.2441 3.27157 32.2502 3.26569 32.2624 3.25391C32.3176 3.17154 32.3851 3.08916 32.4402 3.00678C32.4525 2.99501 32.4586 2.98324 32.4709 2.97147Z" fill="#3A3B7B"/>
<path id="Vector_2" d="M18.3447 2.81635C18.3021 2.92817 18.294 3.00874 18.3136 3.0757C18.3354 3.16676 18.3918 3.19657 18.4683 3.17341C19.1884 3.0025 20.7675 3.48761 21.3521 3.62281C21.49 3.6512 21.6022 3.48038 21.5081 3.32722C21.3708 3.1789 19.7924 2.54388 19.1902 2.50926C18.9541 2.49645 18.5321 2.43835 18.3447 2.81635Z" fill="#3A3B7B"/>
<path id="Vector_3" d="M24.516 0.760713C24.5928 0.803228 24.6357 0.843783 24.6568 0.889096C24.6884 0.948535 24.6717 0.989659 24.6187 1.01064C24.1427 1.23362 23.5093 2.19356 23.2536 2.52463C23.1917 2.60079 23.0487 2.55653 23.0271 2.43129C23.0315 2.28968 23.593 1.24793 23.9064 0.964188C24.0295 0.853408 24.233 0.636045 24.516 0.760713Z" fill="#3A3B7B"/>
<path id="Vector_4" d="M20.7252 0.288205C20.8174 0.22151 20.9132 0.198138 20.9622 0.241481C21.6804 0.830981 22.0612 1.76451 22.297 2.61913C22.3059 2.63904 22.3065 2.66761 22.2994 2.69742C22.2964 2.72289 22.277 2.7498 22.2462 2.77063C22.2133 2.79362 22.185 2.80062 22.1717 2.78081C21.8569 2.3699 20.0591 0.77112 20.7252 0.288205Z" fill="#3A3B7B"/>
<path id="Vector_5" d="M5.5167 10.5086C5.68883 10.3856 5.87596 10.2832 6.07398 10.2037C6.28116 10.1469 6.50199 10.1563 6.7031 10.2306C6.90416 10.3049 7.0746 10.44 7.18855 10.6156C7.29048 10.7906 7.33034 10.9928 7.30221 11.1915C7.27407 11.3902 7.17943 11.5748 7.03249 11.7174C6.9186 11.833 6.78928 11.9337 6.648 12.0169C6.01827 12.4074 5.38294 12.7764 4.74765 13.1669C4.61765 13.2646 4.47974 13.3523 4.33525 13.429C4.11547 13.5342 3.86429 13.5624 3.62514 13.5086C3.386 13.455 3.17394 13.3227 3.02563 13.1348C2.91476 13.0018 2.82119 12.8563 2.74699 12.7016C2.14512 11.4874 1.52096 10.2786 0.941383 9.04303C0.673885 8.50819 0.456544 7.89307 0.244776 7.29937C0.153155 7.12687 0.135264 6.92689 0.194911 6.74192C0.254559 6.55694 0.38704 6.4016 0.564172 6.30893C0.741306 6.21626 0.949113 6.19359 1.1434 6.24571C1.3377 6.29782 1.50314 6.42064 1.60455 6.588C1.91626 6.98557 2.19218 7.40787 2.42933 7.85031C3.0312 8.92003 3.60521 9.98976 4.18478 11.0274C4.21853 11.0848 4.25574 11.1401 4.29624 11.1932C4.73247 11.0172 5.14277 10.787 5.5167 10.5086Z" fill="#3A3B7B"/>
<path id="Vector_6" d="M11.7396 10.1355C10.3631 11.6812 8.05594 11.2908 6.8968 9.30109C6.072 7.88903 5.92712 5.55699 7.72159 4.08611C8.10478 3.77817 8.56298 3.56839 9.05348 3.47635C9.65488 3.3936 10.2682 3.49543 10.8056 3.76729C11.3431 4.03915 11.7773 4.46712 12.0461 4.99004C13.0269 6.70163 12.8876 8.88388 11.7396 10.1355ZM11.1823 6.53047C11.0361 6.10986 10.7427 5.75078 10.3519 5.51419C10.1308 5.36293 9.86215 5.28939 9.59118 5.30595C9.32016 5.32252 9.06339 5.42817 8.86401 5.60512C8.06711 6.28443 7.89989 7.8944 8.47947 8.85181C8.55336 9.00793 8.66183 9.14666 8.79741 9.25833C8.93299 9.37 9.09236 9.45189 9.26435 9.49822C9.43634 9.5446 9.61679 9.55433 9.79312 9.52676C9.96946 9.49914 10.1373 9.43491 10.2851 9.33852C10.7171 9.01706 11.034 8.57444 11.1918 8.07217C11.3496 7.56986 11.3405 7.03287 11.1656 6.53583L11.1823 6.53047Z" fill="#3A3B7B"/>
<path id="Vector_7" d="M17.3571 7.20433C17.2161 7.23342 17.0706 7.23516 16.9289 7.20942C16.7873 7.18369 16.6524 7.13106 16.5323 7.05459C16.4272 6.99687 16.3367 6.91755 16.2674 6.82226C16.198 6.72698 16.1516 6.61816 16.1314 6.50355C16.1111 6.389 16.1176 6.27155 16.1502 6.15966C16.1829 6.04776 16.2411 5.94422 16.3205 5.85646C16.4589 5.6801 16.6553 5.55385 16.8778 5.49811C17.4589 5.33625 18.0571 5.23757 18.6611 5.20394C18.7939 5.18912 18.9283 5.19991 19.0566 5.23564C19.1849 5.27143 19.3045 5.33139 19.4083 5.41213C19.5121 5.49283 19.5981 5.59266 19.6612 5.7057C19.7243 5.81874 19.7632 5.94275 19.7757 6.07043C19.9498 6.69757 19.9689 7.35513 19.8314 7.99062C19.3299 10.0445 17.6023 10.7505 15.6629 10.0926C15.1185 9.91674 14.6412 9.58899 14.292 9.15127C13.8262 8.62414 13.496 7.99943 13.3279 7.32737C13.1917 6.7289 13.2066 6.10791 13.3714 5.51614C13.5362 4.92437 13.8461 4.379 14.2753 3.92559C14.6825 3.43279 15.2111 3.04496 15.8134 2.79702C16.194 2.59568 16.6393 2.53844 17.0617 2.63656C17.1575 2.66201 17.2445 2.7116 17.3136 2.78019C17.3828 2.84879 17.4315 2.93388 17.4548 3.02665C17.4781 3.11941 17.4752 3.21647 17.4462 3.30777C17.4173 3.39906 17.3634 3.48126 17.2902 3.54584C17.151 3.66675 16.9998 3.77424 16.8388 3.86676C16.3433 4.16958 15.9122 4.55979 15.5682 5.01672C15.3427 5.3124 15.1874 5.65193 15.1133 6.01138C15.0391 6.37083 15.0479 6.74152 15.1391 7.09739C15.2655 7.58259 15.5459 8.0181 15.9416 8.3436C17.1676 9.41337 18.7614 8.38104 18.4828 6.92085C18.076 7.01715 17.7193 7.11877 17.3571 7.20433Z" fill="#3A3B7B"/>
<path id="Vector_8" d="M24.847 10.2211C23.0359 11.2908 20.9739 10.2211 20.5225 7.97466C20.1937 6.37005 20.8179 4.12359 23.0025 3.2678C23.4672 3.08963 23.9714 3.02708 24.4681 3.08594C25.0649 3.19079 25.6123 3.47277 26.0332 3.89212C26.4542 4.31146 26.7274 4.84702 26.8143 5.42333C27.1821 7.33279 26.3461 9.37066 24.847 10.2211ZM25.4768 6.62141C25.4762 6.17709 25.3125 5.74713 25.0143 5.40727C24.8548 5.19706 24.6244 5.04644 24.3622 4.98107C24.1 4.91574 23.8223 4.93969 23.5764 5.04892C22.5956 5.45539 21.9046 6.93163 22.1554 8.01746C22.1745 8.18785 22.2322 8.35218 22.3244 8.49894C22.4166 8.6457 22.5411 8.77136 22.6892 8.86715C22.8373 8.9629 23.0054 9.02648 23.1817 9.05341C23.3581 9.0803 23.5385 9.06993 23.7102 9.023C24.2286 8.84917 24.6775 8.52431 24.9942 8.09375C25.3109 7.66319 25.4797 7.14845 25.4768 6.62141Z" fill="#3A3B7B"/>
<path id="Vector_9" d="M28.6458 10.6704C28.6185 10.8661 28.5112 11.0434 28.3477 11.1633C28.1841 11.2832 27.9776 11.3358 27.7737 11.3095C27.5697 11.2833 27.385 11.1803 27.2601 11.0233C27.1351 10.8664 27.0804 10.6682 27.1077 10.4725C27.1351 10.2767 27.2423 10.0994 27.4058 9.9795C27.5694 9.85962 27.7759 9.80705 27.9799 9.83329C28.1838 9.85953 28.3686 9.96243 28.4935 10.1194C28.6184 10.2764 28.6732 10.4746 28.6458 10.6704ZM28.161 3.45495C28.267 3.29959 28.4224 3.18128 28.6042 3.11766C28.786 3.05404 28.9844 3.04853 29.1697 3.10194C29.3581 3.14718 29.5245 3.25316 29.6412 3.40214C29.7578 3.55112 29.8176 3.73405 29.8106 3.92029C29.786 4.21903 29.7394 4.51573 29.6712 4.80816C29.4873 5.79769 29.309 6.78717 29.114 7.76601C29.0248 8.15647 28.9078 8.53088 28.7796 8.92666C28.735 9.05039 28.6605 9.1622 28.5622 9.25294C28.5011 9.32121 28.4231 9.37355 28.3354 9.40516C28.2476 9.43682 28.153 9.44668 28.0602 9.43388C27.9674 9.42108 27.8795 9.38603 27.8045 9.33199C27.7296 9.2779 27.6701 9.20656 27.6316 9.12458C27.5653 8.97749 27.5293 8.81945 27.5257 8.65924C27.5257 7.996 27.5257 7.32743 27.5703 6.65881C27.646 5.70465 27.795 4.75714 28.0161 3.82401C28.0421 3.699 28.0911 3.57945 28.161 3.471V3.45495Z" fill="#3A3B7B"/>
<path id="Vector_10" fill-rule="evenodd" clip-rule="evenodd" d="M3.16219 14.9684C3.09639 15.1094 3.07834 15.2666 3.1105 15.4178C3.13189 15.6172 3.17887 15.8134 3.25038 16.0017C3.33966 16.2324 3.43955 16.4605 3.56273 16.7416C3.59106 16.8063 3.62066 16.8739 3.65164 16.9449C3.81775 17.3258 4.02617 17.8126 4.30418 18.517C4.38287 18.7171 4.45275 18.9189 4.52311 19.122C4.55154 19.2041 4.58006 19.2865 4.60926 19.369C4.71393 19.6624 4.89404 19.926 5.13276 20.135C5.23414 20.2498 5.3686 20.3335 5.51937 20.3753C5.67308 20.418 5.83656 20.4153 5.98864 20.3676C6.14072 20.3198 6.27429 20.2292 6.37202 20.1076C6.46783 19.9884 6.5248 19.8447 6.53588 19.6946C6.59803 19.4022 6.57682 19.099 6.47437 18.817C6.31178 18.3489 6.12656 17.8802 5.91298 17.4217L5.912 17.4197C5.56063 16.7023 5.20348 15.9899 4.82942 15.2773L4.82662 15.2723C4.71712 15.0866 4.57481 14.9206 4.40609 14.7818C4.29656 14.6579 4.14548 14.5743 3.97863 14.5455C3.80823 14.5161 3.63248 14.5457 3.48277 14.6292C3.34114 14.7068 3.22887 14.8256 3.16219 14.9684Z" fill="#3A3B7B"/>
<path id="Vector_11" fill-rule="evenodd" clip-rule="evenodd" d="M8.52871 13.2021C7.97778 13.0652 7.40242 13.0452 6.8427 13.1437C6.40918 13.1846 5.98281 13.2806 5.68673 13.4707C5.53615 13.5675 5.4144 13.6917 5.34668 13.8496C5.27859 14.0084 5.26989 14.19 5.3257 14.3923C5.42758 14.7629 5.55989 15.1232 5.69173 15.4824L5.71309 15.5406L5.71361 15.5418C6.11058 16.5853 6.51135 17.6252 6.91575 18.6615C6.96291 18.8248 7.0296 18.9824 7.11447 19.131L7.11606 19.1337C7.22818 19.3183 7.37199 19.4834 7.54141 19.6221C7.62614 19.6984 7.73092 19.7511 7.84454 19.7747C7.95928 19.7985 8.07859 19.7916 8.1895 19.7547C8.30045 19.7179 8.39869 19.6525 8.47356 19.5657C8.54722 19.4803 8.59545 19.3775 8.61316 19.268C8.68626 18.9706 8.66284 18.6589 8.546 18.3746C8.50955 18.279 8.48094 18.1812 8.4508 18.0783C8.44075 18.044 8.43056 18.0091 8.41981 17.9735C9.34552 17.6262 10.3305 17.1592 10.6768 16.0729C10.8125 15.6975 10.8238 15.2909 10.7092 14.9091C10.5945 14.5268 10.3592 14.1879 10.0357 13.9392C9.59537 13.591 9.08104 13.3394 8.52871 13.2021ZM7.00161 14.5346C7.01983 14.5296 7.0382 14.5249 7.05662 14.5205C7.65928 14.4296 8.27587 14.5508 8.79286 14.8616C9.0207 15.0137 9.11403 15.1827 9.13006 15.3453C9.14661 15.5127 9.08319 15.6941 8.95578 15.8684C8.71505 16.1978 8.27573 16.4615 7.87889 16.5106C7.58959 15.8712 7.29581 15.2059 7.00161 14.5346Z" fill="#3A3B7B"/>
<path id="Vector_12" d="M12.2016 12.0316C12.8577 11.7408 13.6704 11.6906 14.3064 11.895C14.4665 11.9398 14.6055 12.0367 14.6995 12.169C14.7928 12.3005 14.8359 12.4591 14.8215 12.6175C14.8206 12.7204 14.7943 12.8216 14.7448 12.9129C14.6944 13.0058 14.6215 13.0857 14.5321 13.1459C14.4427 13.2061 14.3396 13.2447 14.2314 13.2586C14.1232 13.2724 14.0131 13.261 13.9104 13.2254L13.9026 13.2227L13.8953 13.219C13.8427 13.1926 13.7869 13.1727 13.7292 13.1598L13.7256 13.159C13.2782 13.045 12.8562 13.2339 12.7021 13.4661C12.6286 13.5768 12.6195 13.6886 12.6807 13.7902C12.7463 13.8991 12.9071 14.0213 13.2325 14.1083C13.322 14.1319 13.4137 14.1547 13.5068 14.1778C13.7641 14.2418 14.0316 14.3082 14.2901 14.4003L14.2911 14.4006C15.4841 14.8363 15.9283 15.7385 15.7763 16.5872C15.6258 17.4264 14.8956 18.1902 13.7974 18.3703C13.3978 18.4554 12.982 18.4388 12.591 18.3223C12.1991 18.2055 11.8458 17.9923 11.5663 17.7038L11.559 17.6963C11.4707 17.5876 11.4114 17.4599 11.3851 17.3244C11.3609 17.2022 11.3736 17.0758 11.4218 16.9603C11.4696 16.8454 11.5506 16.746 11.655 16.6735C11.7654 16.5914 11.8984 16.5421 12.0376 16.5319C12.1764 16.5216 12.3152 16.5506 12.4371 16.6151C12.5588 16.6715 12.672 16.7435 12.7736 16.8291L12.7755 16.8307C12.9552 16.9884 13.1727 17.0295 13.3812 16.9915C13.5928 16.9528 13.7917 16.8327 13.9197 16.6732C14.0468 16.5148 14.0979 16.3266 14.0373 16.144C13.9764 15.9599 13.7931 15.7538 13.3905 15.5814C13.2852 15.5385 13.1761 15.5039 13.0626 15.4703C13.032 15.4612 13.0008 15.4521 12.9693 15.443C12.8854 15.4185 12.799 15.3933 12.7143 15.3656C12.656 15.3465 12.5982 15.3284 12.5409 15.3105C12.3842 15.2615 12.2316 15.2138 12.0846 15.1498C11.7648 15.0453 11.4885 14.8446 11.2968 14.5775C11.1044 14.3093 11.0075 13.9886 11.0207 13.6632C11.0217 12.8703 11.5421 12.324 12.2016 12.0316Z" fill="#3A3B7B"/>
<path id="Vector_13" d="M20.5194 11.9472C20.3922 11.8876 20.2515 11.8593 20.1101 11.8648C19.9687 11.8704 19.8309 11.9097 19.7092 11.9792C19.5883 12.0482 19.4871 12.1448 19.4145 12.2605C19.348 12.3579 19.302 12.4668 19.2791 12.5811C19.2561 12.6954 19.2567 12.8129 19.2806 12.9269C19.3043 13.0734 19.3306 13.2159 19.3565 13.3564C19.3995 13.589 19.4413 13.8163 19.4689 14.0481L19.4699 14.0539C19.5326 14.4174 19.5655 14.785 19.5684 15.1534L19.5687 15.1587C19.5902 15.5565 19.4489 15.9466 19.1753 16.2462L19.171 16.2515C19.0819 16.361 18.9629 16.4446 18.8271 16.4929C18.6914 16.5412 18.5444 16.5523 18.4024 16.525C18.2605 16.4976 18.1293 16.433 18.0235 16.3381C17.9177 16.2433 17.8414 16.1217 17.8033 15.9877C17.722 15.7053 17.6749 15.4147 17.6629 15.1219L17.8018 12.9995C17.8039 12.9718 17.8062 12.9433 17.8086 12.9146C17.8139 12.8502 17.8193 12.7845 17.8215 12.7233C17.8248 12.6332 17.822 12.5405 17.8001 12.4528C17.7778 12.3631 17.7352 12.2779 17.6597 12.2052C17.5849 12.1333 17.4839 12.0803 17.3569 12.0442C17.1272 11.9804 16.933 11.9824 16.7711 12.0483C16.6092 12.1143 16.4982 12.2367 16.4197 12.378C16.3418 12.5183 16.2917 12.6842 16.2539 12.8505C16.2258 12.9739 16.2032 13.1034 16.1818 13.2266C16.1743 13.2691 16.1671 13.3108 16.1598 13.3513L16.1596 13.3525C16.0448 14.0286 16.0106 14.715 16.0577 15.3985C16.0665 15.7678 16.1468 16.1324 16.2944 16.4736C16.4611 16.9138 16.7628 17.2953 17.16 17.5676C17.5579 17.8404 18.0328 17.9907 18.5217 17.9987C19.0107 18.0066 19.4906 17.8718 19.898 17.6121C20.3047 17.3527 20.6199 16.981 20.8019 16.5461C21.0564 15.9922 21.176 15.3897 21.1513 14.7847C21.1364 14.343 21.1113 13.8979 21.0864 13.455C21.0741 13.2378 21.0619 13.021 21.051 12.8056C21.0455 12.5895 20.9713 12.3803 20.8383 12.2059C20.756 12.0957 20.6464 12.0068 20.5194 11.9472Z" fill="#3A3B7B"/>
<path id="Vector_14" d="M25.0221 15.2752C25.0092 15.2909 24.9956 15.3072 24.9814 15.3241C24.8779 14.7512 24.782 14.1785 24.6859 13.6049C24.6515 13.3991 24.6169 13.1924 24.582 12.9863L24.5781 12.9633L24.5654 12.9435C24.5414 12.9061 24.539 12.8694 24.539 12.7912V12.7822L24.5376 12.7733C24.5116 12.6118 24.4355 12.4616 24.3193 12.3422C24.2034 12.2231 24.0528 12.1403 23.8873 12.1043C23.722 12.0652 23.5482 12.0738 23.388 12.1291C23.2281 12.1843 23.0888 12.2835 22.9874 12.4143C22.9031 12.5146 22.834 12.6259 22.7822 12.7448C22.6646 13.001 22.5461 13.2578 22.4272 13.5153L22.4251 13.5198C22.1283 14.1627 21.8295 14.8098 21.5393 15.4621L21.5384 15.4642C21.3603 15.8872 21.2133 16.3328 21.0668 16.7771C21.0375 16.8658 21.0083 16.9544 20.9788 17.0428C20.9259 17.183 20.9027 17.332 20.9107 17.4808C20.9011 17.6141 20.9343 17.747 21.006 17.8617C21.0791 17.9787 21.1886 18.0707 21.319 18.1249C21.4573 18.1831 21.6118 18.1954 21.7582 18.16C21.9043 18.1246 22.0341 18.0437 22.127 17.9299C22.2457 17.7898 22.3479 17.6369 22.4312 17.475C22.6769 16.9924 22.9118 16.504 23.1457 16.0177C23.2361 15.8296 23.324 15.6611 23.4241 15.4777C23.4309 15.5003 23.4379 15.5224 23.4452 15.5445C23.55 15.9874 23.727 16.4117 23.9695 16.8017C24.0154 16.8844 24.0793 16.9566 24.1569 17.0134C24.2354 17.071 24.326 17.1113 24.4224 17.1318C24.5189 17.1523 24.6188 17.1524 24.7152 17.1321C24.8116 17.1118 24.9025 17.0714 24.981 17.0142L25.1365 16.9024L26.3434 15.9268L26.272 16.3633C26.1741 16.9633 26.0768 17.5584 25.9736 18.1535C25.906 18.4173 25.9061 18.6929 25.9738 18.9566C26.0032 19.105 26.078 19.2416 26.1886 19.349C26.3002 19.4574 26.4432 19.5309 26.5989 19.5603C26.7546 19.5896 26.9159 19.5734 27.0619 19.5136C27.2058 19.4547 27.3281 19.3563 27.4136 19.2308C27.6126 18.9939 27.7365 18.707 27.7705 18.4043C27.8217 17.9769 27.8796 17.5437 27.9375 17.1106C28.0042 16.6114 28.0709 16.1124 28.1272 15.6229L28.1274 15.6214C28.1816 15.0856 28.2078 14.5476 28.206 14.0093C28.2179 13.8392 28.1738 13.6697 28.0797 13.5249C27.9854 13.3795 27.8456 13.2665 27.6805 13.2019C27.5087 13.1269 27.3163 13.1069 27.1318 13.1448C26.9484 13.1824 26.7825 13.2752 26.658 13.4095C26.4354 13.6071 26.2265 13.8186 26.0328 14.0425L26.0315 14.044C25.82 14.2969 25.61 14.5548 25.4013 14.811C25.2744 14.9668 25.1479 15.1222 25.0221 15.2752Z" fill="#3A3B7B"/>
</g>
<defs>
<clipPath id="clip0_211_2057">
<rect width="32.7153" height="20.186" fill="white" transform="translate(0.160278 0.219482)"/>
</clipPath>
</defs>
</svg>
