<svg width="29" height="20" viewBox="0 0 29 20" fill="none" xmlns="http://www.w3.org/2000/svg">
<g id="Logo" clip-path="url(#clip0_211_2073)">
<path id="Vector" d="M27.0804 1.50296C27.0804 1.82732 27.3466 2.09027 27.675 2.09027H28.2696C28.598 2.09027 28.8641 1.82732 28.8641 1.50296C28.8641 1.1786 28.598 0.915649 28.2696 0.915649H27.675C27.3466 0.915649 27.0804 1.1786 27.0804 1.50296Z" fill="#212326"/>
<path id="Vector_2" d="M9.83827 19.7095H12.7265L11.8857 18.8789C11.6627 18.6587 11.3602 18.5349 11.0449 18.5349H9.83827C5.24113 18.5349 1.51444 14.8537 1.51444 10.3126C1.51444 5.77152 5.24113 2.09027 9.83827 2.09027H19.3512C23.9483 2.09027 27.675 5.77152 27.675 10.3126C27.675 14.8537 23.9483 18.5349 19.3512 18.5349H15.7926C15.3195 18.5349 14.8659 18.3493 14.5313 18.0189L13.5463 17.0458C12.9888 16.4951 12.2326 16.1857 11.4441 16.1857H9.83827C6.55459 16.1857 3.89267 13.5562 3.89267 10.3126C3.89267 7.06895 6.55459 4.4395 9.83827 4.4395H19.3512C22.6349 4.4395 25.2968 7.06895 25.2968 10.3126C25.2968 13.5562 22.6349 16.1857 19.3512 16.1857H17.0663C16.5932 16.1857 16.1395 16 15.805 15.6696L14.8199 14.6965C14.2624 14.1458 13.5062 13.8364 12.7178 13.8364H9.83827C7.86809 13.8364 6.27091 12.2587 6.27091 10.3126C6.27091 8.36643 7.86809 6.78874 9.83827 6.78874H19.3512C21.3214 6.78874 22.9186 8.36643 22.9186 10.3126C22.9186 12.235 21.3601 13.7979 19.4231 13.8357L19.4228 13.8364H18.5527C18.0796 13.8364 17.6259 13.6508 17.2914 13.3204L16.3063 12.3473C15.8488 11.8954 15.2577 11.606 14.6246 11.5167L14.5947 11.4872H9.83827C9.18154 11.4872 8.64915 10.9613 8.64915 10.3126C8.64915 9.66387 9.18154 9.13797 9.83827 9.13797H19.3512C20.0079 9.13797 20.5403 9.66387 20.5403 10.3126C20.5403 10.9613 20.0079 11.4872 19.3512 11.4872H16.973L17.8138 12.3178C18.0368 12.5381 18.3393 12.6618 18.6546 12.6618H19.3512C20.6647 12.6618 21.7295 11.61 21.7295 10.3126C21.7295 9.01515 20.6647 7.96335 19.3512 7.96335H9.83827C8.52481 7.96335 7.46003 9.01515 7.46003 10.3126C7.46003 11.61 8.52481 12.6618 9.83827 12.6618H14.2042C14.6773 12.6618 15.1309 12.8475 15.4655 13.1779L16.4506 14.151C17.0081 14.7017 17.7642 15.0111 18.5527 15.0111H19.6485V15.002C22.1369 14.8505 24.1077 12.8088 24.1077 10.3126C24.1077 7.71772 21.9781 5.61412 19.3512 5.61412H9.83827C7.21136 5.61412 5.08179 7.71772 5.08179 10.3126C5.08179 12.9075 7.21136 15.0111 9.83827 15.0111H12.7178C13.1909 15.0111 13.6445 15.1967 13.9791 15.5271L14.9642 16.5002C15.5217 17.0509 16.2778 17.3603 17.0663 17.3603H19.3512C23.2916 17.3603 26.4859 14.2049 26.4859 10.3126C26.4859 6.42023 23.2916 3.26488 19.3512 3.26488H9.83827C5.89786 3.26488 2.70355 6.42023 2.70355 10.3126C2.70355 14.2049 5.89786 17.3603 9.83827 17.3603H11.4441C11.9172 17.3603 12.3709 17.5459 12.7054 17.8763L13.6905 18.8494C14.248 19.4001 15.0042 19.7095 15.7926 19.7095H19.3512C24.6051 19.7095 28.8642 15.5024 28.8642 10.3126C28.8642 5.1228 24.6051 0.915649 19.3512 0.915649L9.83827 0.915651C4.58441 0.915652 0.325317 5.1228 0.325317 10.3126C0.325318 15.5024 4.58441 19.7095 9.83827 19.7095Z" fill="#212326"/>
</g>
<defs>
<clipPath id="clip0_211_2073">
<rect width="28.5388" height="18.7939" fill="white" transform="translate(0.325317 0.915649)"/>
</clipPath>
</defs>
</svg>
